PathFileType	4	(X/Y/Z)	C:/Users/beibeiliu/ov580/test_trc/User3\sequence.27_training_dense_left.trc
DataRate	CameraRate	NumFrames	NumMarkers	Units	OrigDataRate	OrigDataStartFrame	OrigNumFrames
120	120	17	19	mm	120	1	91
Frame#	Time	ThumbCMC			ThumbMCP			ThumbIP			ThumbTip			IndexMCP			IndexPIP			IndexTip			MiddleMCP			MiddlePIP			MiddleTip			RingMCP			RingPIP			RingTip			PinkyMCP			PinkyPIP			PinkyTip			BackHand1			BackHand2			BackHand3	
		X0	Y0	Z0	X1	Y1	Z1	X2	Y2	Z2	X3	Y3	Z3	X4	Y4	Z4	X5	Y5	Z5	X6	Y6	Z6	X7	Y7	Z7	X8	Y8	Z8	X9	Y9	Z9	X10	Y10	Z10	X11	Y11	Z11	X12	Y12	Z12	X13	Y13	Z13	X14	Y14	Z14	X15	Y15	Z15	X16	Y16	Z16	X17	Y17	Z17	X18	Y18	Z18	
0	0	-179.478	-71.3202	35.7707	-197.494	-58.759	17.0979	-219.24	-49.8513	-2.40912	-231.834	-38.7	-22.4596	-160.469	-80.0529	-41.7509	-168.795	-75.0743	-68.743	-173.454	-59.6914	-97.232	-135.671	-79.5777	-49.3029	-133.954	-70.4587	-78.6221	-132.231	-47.0461	-103.885	-114.943	-65.9989	-43.1534	-109.696	-51.507	-62.6915	-107.23	-24.3582	-75.6978	-92.9069	-53.0878	-24.723	-90.4784	-35.9123	-35.535	-94.3596	-12.3641	-47.2996	-117.779	-91.4986	5.9993	-116.945	-94.7389	41.6332	-149.818	-94.2012	21.5951	
1	0.00833333	-176.218	-66.8152	31.6906	-198.15	-58.1407	14.4513	-214.13	-48.8498	-5.9063	-230.787	-38.4434	-24.3978	-159.281	-75.0382	-46.2142	-166.358	-69.5338	-75.4821	-170.211	-55.9046	-100.897	-135.905	-75.476	-54.8558	-135.056	-68.766	-79.2592	-131.859	-47.2459	-108.554	-109.834	-67.146	-44.0051	-109.17	-56.136	-67.8009	-103.464	-31.5906	-90.6961	-93.9803	-57.5449	-25.7773	-84.4641	-40.0596	-47.7242	-81.1979	-24.0869	-60.8246	-114.924	-86.3988	6.97288	-116.476	-91.5505	35.4275	-149.471	-88.4342	17.0817	
2	0.0166667	-173.188	-61.0601	31.9977	-193.486	-53.4761	15.2952	-216.44	-44.895	-9.22633	-226.551	-36.0981	-22.0725	-163.504	-69.245	-51.4707	-164.996	-64.9589	-74.9262	-172.934	-54.9208	-99.1748	-133.22	-72.9747	-53.7813	-134.592	-66.3416	-82.3245	-135.022	-50.4421	-111.397	-114.547	-67.4165	-45.0598	-107.811	-58.8137	-74.7485	-100.648	-44.4485	-97.641	-90.3938	-58.6395	-29.6459	-80.6627	-47.3021	-50.1515	-76.2253	-34.4323	-67.9063	-113.171	-83.3904	3.8467	-115.458	-86.035	32.5598	-146.464	-83.438	17.8034	
3	0.025	-175.031	-57.2058	26.5485	-191.662	-48.8536	10.9987	-212.656	-40.7601	-8.67525	-225.974	-32.063	-21.0906	-159.847	-65.1664	-52.2207	-168.807	-60.8766	-78.9306	-167.056	-53	-99.6666	-134.968	-69.498	-53.7347	-133.863	-64.0778	-85.6236	-132.208	-50.7932	-113.972	-114.082	-65.1114	-49.1223	-106.998	-59.9112	-74.9797	-103.227	-51.4276	-96.6152	-94.0604	-55.8794	-30.5562	-83.2252	-49.7353	-52.8707	-72.3774	-41.2713	-71.4452	-113.775	-78.1694	-0.778134	-110.226	-82.801	29.5514	-146.687	-79.5401	13.301	
4	0.0333333	-168.86	-52.7423	28.9682	-192.049	-44.3964	9.05559	-213.536	-35.8118	-7.02134	-227.142	-26.3283	-22.9281	-162.183	-63.153	-49.1332	-167.18	-60.4497	-74.7414	-172.485	-52.4193	-99.9116	-137.264	-68.9577	-60.0266	-137.062	-62.6176	-88.5788	-135.834	-53.1542	-114.214	-109.308	-62.7364	-49.0045	-108.457	-59.6715	-77.898	-101.351	-50.0958	-102.133	-87.8146	-54.1897	-33.4271	-84.5149	-49.6644	-53.4074	-72.0617	-43.5157	-73.9715	-112.395	-77.1741	-1.37104	-114.942	-80.2228	26.9587	-144.96	-75.3621	12.4597	
5	0.0416667	-168.323	-45.1309	24.8823	-188.348	-34.8501	9.46483	-207.8	-23.7209	-12.0435	-221.543	-11.963	-25.5984	-163.408	-57.7487	-47.6126	-165.35	-55.068	-78.7521	-171.99	-47.4058	-99.8964	-134.944	-66.1637	-59.0572	-138.547	-62.5461	-85.9182	-134.419	-52.7201	-115.467	-110.374	-63.4785	-49.6753	-107.727	-61.1813	-77.9506	-102.513	-54.4521	-100.347	-91.0459	-58.1222	-34.3775	-85.6961	-54.7251	-53.0096	-73.6371	-48.8102	-75.201	-117.232	-75.2842	2.04756	-113.916	-77.9279	28.8856	-149.241	-70.1219	14.1151	
6	0.05	-166.39	-24.7273	26.1503	-182.037	-8.54947	8.98927	-191.968	6.48781	-9.12313	-201.453	19.2439	-26.7258	-162.898	-43.4749	-51.8489	-170.326	-37.7359	-73.0959	-170.236	-31.6349	-99.295	-141.212	-57.9816	-58.795	-145.679	-53.4573	-82.6185	-142.429	-45.665	-116.8	-122.307	-60.2241	-47.2453	-118.042	-61.0407	-75.1184	-114.628	-55.4788	-104.893	-95.4448	-63.4527	-34.7453	-90.1321	-62.6138	-59.2871	-82.3437	-60.9633	-79.2333	-125.171	-67.8594	3.29836	-120.673	-73.7113	31.4023	-151.757	-58.5402	16.735	
7	0.0583333	-154.693	-0.0826763	30.9167	-161.121	20.9147	11.4609	-170.081	41.6182	-12.1513	-172.276	57.0783	-25.8825	-164.579	-19.6998	-49.2342	-169.223	-11.3077	-76.6218	-167.265	-8.5472	-98.5351	-151.687	-40.4835	-57.168	-153.236	-36.7572	-82.4161	-150.66	-26.8194	-118.039	-134.616	-51.7387	-47.6357	-130.715	-55.96	-75.1091	-126.94	-52.5863	-100.921	-111.634	-65.7932	-37.0454	-108.38	-66.1466	-56.1799	-101.131	-67.5972	-83.0104	-133.545	-61.0288	4.10099	-133.787	-62.85	30.53	-159.191	-35.1433	17.4009	
8	0.0666667	-138.855	17.6896	27.7901	-137.462	39.0666	8.27179	-136.552	57.976	-11.5834	-135.384	76.4457	-29.3553	-158.35	2.23285	-46.1959	-161.29	10.3883	-76.604	-159.198	19.3851	-101.437	-155.076	-21.1958	-52.7788	-155.647	-19.3609	-85.2318	-151.124	-11.2882	-114.734	-143.421	-40.4984	-48.4254	-143.685	-43.262	-73.8205	-140.659	-38.5883	-102.809	-125.413	-59.4476	-32.2151	-125.933	-61.1563	-54.6141	-122.708	-66.4862	-80.653	-143.79	-44.6817	3.2061	-142.014	-49.1797	34.1189	-154.248	-14.9152	18.915	
9	0.075	-120.264	25.6743	28.9842	-111.343	51.1662	9.70999	-104.249	68.982	-8.99079	-95.9885	78.4844	-26.8441	-145.854	22.056	-46.74	-147.37	26.6311	-71.2701	-145.121	33.5497	-98.1788	-152.257	-0.0600572	-54.0747	-152.847	4.6763	-81.5298	-147.106	7.73028	-112.163	-148.699	-20.4669	-48.1147	-151.472	-26.5542	-71.1062	-147.874	-23.6015	-100.069	-137.299	-43.3946	-30.6021	-141.477	-49.4761	-56.4087	-141.778	-51.6104	-78.8731	-148.742	-31.1531	4.56555	-148.543	-32.5738	30.9247	-146.951	4.12334	20.4464	
10	0.0833333	-97.9134	31.0939	26.7045	-81.7533	45.1271	7.88848	-67.7119	58.6899	-14.0889	-55.5366	69.288	-30.3299	-127.71	33.6713	-47.3104	-125.534	42.4974	-71.2087	-124.094	44.9232	-99.634	-143.343	18.0666	-53.8941	-142.266	22.1138	-78.6828	-139.949	20.4942	-110.548	-149.971	-7.24297	-44.3813	-154.047	-4.58046	-68.6868	-152.265	-2.91852	-98.8318	-147.104	-26.1819	-28.2416	-155.452	-28.1797	-52.4467	-157.669	-30.5927	-75.0289	-149.762	-9.99862	7.47474	-147.844	-11.056	32.3551	-133.963	19.6871	20.6499	
11	0.0916667	-79.1025	23.6071	28.8828	-55.6216	35.0473	9.60784	-39.1405	42.3016	-13.1117	-28.482	43.6085	-31.4702	-105.366	42.0033	-46.7217	-102.082	47.9411	-72.9605	-101.432	49.2214	-95.1974	-127.547	32.3808	-48.9302	-129.276	35.8598	-78.4932	-126.596	35.5831	-111.962	-142.564	13.5952	-39.323	-145.282	18.7942	-64.7575	-149.621	16.7229	-91.8269	-149.553	-1.64967	-28.7145	-156.327	-2.61388	-46.1132	-165.64	-4.7788	-71.8243	-143.203	13.0835	9.03183	-141.968	9.19341	37.7114	-111.369	31.854	20.0517	
12	0.1	-64.6522	19.4256	24.8082	-43.5649	18.1697	6.49209	-20.9146	19.6692	-14.7518	-8.58316	18.4679	-32.7413	-83.8507	41.7124	-48.5338	-78.4737	44.8306	-72.9597	-78.7579	44.9471	-95.2605	-107.425	41.8916	-50.3239	-110.285	44.382	-79.2165	-111.076	43.4581	-107.353	-131.336	30.6017	-38.8297	-130.603	36.1915	-66.1196	-136.5	34.8609	-91.5417	-144.303	15.503	-22.1741	-150.384	19.5989	-42.3179	-157.887	23.8416	-68.7355	-123.793	29.7448	8.50648	-124.255	26.8455	41.1962	-93.0485	35.1497	22.4242	
13	0.108333	-51.4835	3.35413	27.7263	-29.5979	-3.95211	5.14916	-13.9085	-10.9645	-18.7409	-4.14859	-19.2779	-36.491	-69.5529	27.6541	-48.0134	-63.6271	26.9933	-72.9839	-62.8377	25.0394	-101.702	-88.8414	39.0596	-53.7162	-88.5612	39.1307	-80.6424	-90.1955	37.3815	-108.612	-110.335	37.6753	-41.7346	-113.349	40.7364	-63.0955	-117.563	41.263	-90.3895	-126.843	31.9673	-25.4217	-136.487	36.4646	-46.6189	-140.653	41.0144	-67.0144	-105.049	36.6506	7.70661	-103.824	38.2829	37.9472	-72.2318	32.5629	22.5495	
14	0.116667	-44.6649	-6.92636	26.8346	-28.4559	-18.9966	7.66737	-14.1465	-30.3369	-17.1132	-9.30152	-39.0895	-37.2095	-61.382	18.2465	-51.4241	-57.9142	15.731	-75.2243	-56.7973	12.1841	-101.413	-78.0822	30.9083	-50.9421	-78.5111	31.6813	-79.3897	-83.9399	31.3439	-113.721	-100.121	34.7187	-40.8271	-104.061	39.2461	-65.1781	-108.006	39.0417	-89.4879	-121.963	34.139	-24.3683	-127.589	38.2965	-40.8456	-134.758	45.9823	-66.7018	-96.7094	36.6167	11.0835	-92.1428	33.655	36.974	-63.7073	24.807	19.3315	
15	0.125	-43.1996	-11.815	25.5138	-29.3597	-24.8228	2.45923	-16.8359	-36.6215	-24.7376	-14.6908	-48.2652	-40.1527	-56.1628	16.7557	-48.582	-50.9816	15.0099	-74.9814	-54.7708	15.0683	-103.66	-78.3325	31.9358	-48.3548	-76.0564	32.7168	-80.9836	-80.5729	32.6758	-108.936	-99.5993	34.0307	-37.6186	-102.312	37.4933	-62.1907	-110.533	40.0629	-88.1854	-121.13	32.4723	-21.6139	-126.023	36.1726	-40.8502	-133.694	43.0337	-63.3802	-91.6436	33.0985	9.0803	-88.6545	31.77	39.1417	-58.094	22.952	17.4056	
16	0.133333	-43.4275	-15.1687	24.8695	-32.6886	-31.7114	-3.75675	-28.8934	-44.2559	-27.0077	-30.2635	-54.6039	-50.4995	-56.6586	18.1033	-45.7155	-54.001	19.0589	-76.8804	-53.2762	18.0232	-100.817	-80.039	32.3379	-46.2494	-80.4161	36.5434	-77.4474	-83.3658	35.9739	-107.326	-97.921	32.7728	-39.2116	-106.277	40.0747	-62.9231	-113.521	43.1183	-90.3892	-121.182	31.1474	-22.6673	-128.788	35.1829	-39.0016	-137.743	40.9702	-59.2907	-91.0031	32.5695	14.157	-86.6025	31.7348	38.0918	-59.5246	22.234	17.3232	
